PathFileType	4	(X/Y/Z)	./resultDataOpenSim/trcMotMarkerGrf/sub09/qtm-15-02.trc
DataRate	CameraRate	NumFrames	NumMarkers	Units	OrigDataRate	OrigDataStartFrame	OrigNumFrames
250.000000	250.000000	7	24	m	250.000000	65	515
Frame#	Time	L.Toe.Tip			R.Toe.Tip			L.Ankle.Lat			R.Ankle.Lat			L.Ankle.Med			R.Ankle.Med			L.Heel			R.Heel			L.Knee.Lat			R.Knee.Lat			L.Knee.Med			R.Knee.Med			L.Thigh.Upper			R.Thigh.Upper			L.ASIS			R.ASIS			V.Sacral			L.Acromium			R.Acromium			C7			L.Elbow			R.Elbow			L.Wrist.Lat			R.Wrist.Lat
		X1	Y1	Z1	X2	Y2	Z2	X3	Y3	Z3	X4	Y4	Z4	X5	Y5	Z5	X6	Y6	Z6	X7	Y7	Z7	X8	Y8	Z8	X9	Y9	Z9	X10	Y10	Z10	X11	Y11	Z11	X12	Y12	Z12	X13	Y13	Z13	X14	Y14	Z14	X15	Y15	Z15	X16	Y16	Z16	X17	Y17	Z17	X18	Y18	Z18	X19	Y19	Z19	X20	Y20	Z20	X21	Y21	Z21	X22	Y22	Z22	X23	Y23	Z23	X24	Y24	Z24

65	0.256	-1.248902	0.10362622	-0.051738296	-0.60812558	0.039196975	0.075783041	-1.2788799	0.25841311	-0.089601085	-0.75492899	0.054104368	0.11486866	-1.2550928	0.23826412	0.0040173271	-0.74853942	0.09023993	0.020905299	-1.3445326	0.29838683	-0.036424722	-0.82423798	0.031110019	0.067943346	-0.90518084	0.42821159	-0.11579889	-0.70247098	0.50538615	0.17405517	-0.89874688	0.41349933	0.011976285	-0.72510588	0.49411089	0.049909057	-0.92549431	0.83631301	-0.12684379	-0.89235611	0.86482322	0.24569503	-0.83564088	0.92749332	-0.076899766	-0.820827	0.9534293	0.16448274	-0.99898576	0.99152942	0.054531196	-0.83585456	1.3917663	-0.10843913	-0.86851123	1.397678	0.22120985	-0.92007281	1.4466558	0.053300653	-0.97564377	1.0542843	-0.18889224	-1.0120833	1.0673958	0.30434095	-0.81742166	0.83808927	-0.19259786	-0.89588564	0.82091478	0.33189276
66	0.26	-1.2334053	0.10496468	-0.053253458	-0.60820248	0.039216505	0.075825937	-1.2650337	0.25937063	-0.089680278	-0.75507265	0.054102034	0.11487844	-1.2421987	0.23888101	0.0043189593	-0.74851288	0.090318312	0.020991491	-1.3313538	0.29858209	-0.036459046	-0.82431981	0.031132681	0.067889256	-0.89231717	0.43007803	-0.11557279	-0.70049709	0.50481639	0.17449784	-0.88510304	0.41499212	0.012606898	-0.7227899	0.49409179	0.050386116	-0.91951526	0.83799728	-0.12673246	-0.88929948	0.86627995	0.24561926	-0.83045761	0.92938392	-0.076623992	-0.81503178	0.95496094	0.16463465	-0.99377326	0.9932098	0.054957643	-0.83092228	1.3933685	-0.10856663	-0.86253402	1.3993834	0.22120063	-0.91451579	1.4483135	0.053415469	-0.97106374	1.0559526	-0.18831387	-1.0056564	1.0689618	0.30503044	-0.81348747	0.83903245	-0.19278304	-0.88837418	0.82278848	0.33166748
67	0.264	-1.2176089	0.1060938	-0.054636708	-0.60828323	0.039233783	0.075898816	-1.2510769	0.2600354	-0.089734322	-0.75520051	0.054100376	0.11490051	-1.2286642	0.23926835	0.0045248661	-0.74849843	0.090409285	0.021104552	-1.3180725	0.2984331	-0.03656374	-0.82438572	0.031157408	0.067836729	-0.8794982	0.4321423	-0.11518611	-0.69835418	0.50427832	0.17497894	-0.87134841	0.41674428	0.01316139	-0.72068045	0.4940148	0.050816773	-0.91330647	0.83980477	-0.12646215	-0.88579075	0.86773555	0.24562222	-0.82530913	0.93131683	-0.076307489	-0.80922556	0.95646838	0.16486008	-0.98857844	0.99487946	0.055326268	-0.82602503	1.3950295	-0.10868534	-0.85665845	1.4011399	0.22120464	-0.90899808	1.4499979	0.053481136	-0.9665951	1.057693	-0.18778817	-0.99927593	1.0705694	0.30568579	-0.80946522	0.84007417	-0.19292336	-0.8809139	0.82474175	0.33145556
68	0.268	-1.201537	0.107013	-0.055889305	-0.60836439	0.039251237	0.076003144	-1.2370061	0.26042501	-0.089764268	-0.75530977	0.054108142	0.11493502	-1.2140008	0.23947472	0.004399277	-0.74849174	0.090517012	0.021239274	-1.304688	0.29793565	-0.036728712	-0.82443097	0.031185486	0.067789195	-0.86659962	0.43442948	-0.11467017	-0.69605707	0.5039105	0.17536682	-0.85771545	0.41887073	0.013551263	-0.71861795	0.49393587	0.051105088	-0.90697578	0.84171039	-0.12605113	-0.88128641	0.86921565	0.2457793	-0.82008243	0.93329877	-0.07595653	-0.80360608	0.95794724	0.16514181	-0.98339707	0.99653477	0.055646761	-0.82114976	1.396748	-0.10879185	-0.85084755	1.4029442	0.22120893	-0.90351062	1.4516916	0.053503926	-0.96202347	1.0594856	-0.18717753	-0.99293656	1.0722172	0.30631281	-0.80558582	0.84122892	-0.19310842	-0.87350732	0.82676629	0.33125708
69	0.272	-1.1852215	0.10771525	-0.056997171	-0.60844326	0.039270455	0.076136267	-1.2228214	0.26054765	-0.089779827	-0.75540104	0.054126871	0.11497967	-1.1985203	0.23951635	0.0039992749	-0.74849093	0.090643372	0.021388302	-1.2912164	0.29708829	-0.036909009	-0.82445485	0.031216631	0.067746303	-0.85370079	0.43691852	-0.1140886	-0.69375323	0.50373116	0.17566112	-0.84443426	0.42136865	0.013840321	-0.71646568	0.49390962	0.051226582	-0.90075098	0.84366903	-0.12563385	-0.87597266	0.87071862	0.24605892	-0.81465618	0.93534501	-0.075575827	-0.79842567	0.95939112	0.1654441	-0.97822296	0.99818302	0.055929583	-0.8162953	1.3985215	-0.10889097	-0.84508035	1.4047932	0.22120529	-0.89804491	1.4533908	0.053495938	-0.95716318	1.0612882	-0.18636076	-0.98662965	1.0738957	0.3069164	-0.80196087	0.84249068	-0.19336466	-0.86615258	0.82885121	0.33106533
70	0.276	-1.1687133	0.10819012	-0.057926132	-0.60851759	0.039289949	0.076289893	-1.2085303	0.26038961	-0.089785535	-0.75547625	0.054149222	0.11502931	-1.1830554	0.23936237	0.0036173055	-0.74849253	0.090783413	0.021546111	-1.277674	0.2958953	-0.037067935	-0.82446154	0.031249867	0.067704675	-0.84098242	0.43955721	-0.1134728	-0.69159634	0.5036451	0.17595971	-0.8316587	0.42410526	0.014265578	-0.71429667	0.49392711	0.051314199	-0.89477375	0.84565132	-0.12534133	-0.87036771	0.87222408	0.24638237	-0.80907438	0.93746628	-0.075167985	-0.7937722	0.96079594	0.1657451	-0.9730513	0.99983959	0.056184729	-0.81147726	1.4003452	-0.10899931	-0.83935569	1.4066811	0.22119408	-0.89259343	1.4551078	0.053464223	-0.95211391	1.0630691	-0.18539798	-0.98034978	1.0755941	0.3075021	-0.79851941	0.8438132	-0.19363733	-0.85883597	0.83098441	0.33087477
71	0.28	-1.1520762	0.10843144	-0.058637796	-0.60859095	0.039308411	0.076457442	-1.1941394	0.25993666	-0.089780029	-0.75554404	0.054168748	0.11508039	-1.1680671	0.23896836	0.0034430366	-0.74849202	0.090926522	0.021710585	-1.2640608	0.29436284	-0.037211216	-0.82446024	0.031285101	0.067662989	-0.82850333	0.44230662	-0.1128172	-0.68964553	0.50355094	0.17633334	-0.81932575	0.42690873	0.014999811	-0.71226875	0.49394344	0.051529738	-0.88897058	0.84766601	-0.12518814	-0.86486302	0.87370951	0.24669525	-0.80355118	0.93964708	-0.074737811	-0.78938912	0.96217154	0.16606573	-0.96787218	1.001521	0.056452155	-0.80672224	1.4022087	-0.10913199	-0.83368104	1.4085982	0.22118144	-0.88715023	1.4568556	0.053414506	-0.94721834	1.0648448	-0.18450861	-0.97409596	1.0773058	0.3080725	-0.79513212	0.84514379	-0.19386673	-0.8515384	0.83315339	0.33068157
